<svg xmlns="http://www.w3.org/2000/svg" width="440.5" height="80" viewBox="0 0 440.5 80">
  <g id="Group_159936" data-name="Group 159936" transform="translate(-463 -1080)">
    <g id="Rectangle_6465" data-name="Rectangle 6465" transform="translate(463 1080)" fill="#fff" stroke="#707070" stroke-width="1" opacity="0">
      <rect width="440" height="80" stroke="none"/>
      <rect x="0.5" y="0.5" width="439" height="79" fill="none"/>
    </g>
    <g id="Group_159935" data-name="Group 159935" transform="translate(7.633)">
      <g id="ReviewStars" transform="translate(695.82 1110.156)">
        <g id="Group_159930" data-name="Group 159930">
          <path id="Path_217572" data-name="Path 217572" d="M0,19.846H19.866V0H0Z" fill="#06b67a"/>
          <path id="Path_217573" data-name="Path 217573" d="M20.948,12.967,9.681,21.144l1.644-5.054-4.3-3.123h5.32l1.644-5.054,1.644,5.054Zm-6.963,5.054,3.077-.647,1.226,3.77Z" transform="translate(-4.014 -4.523)" fill="#fff"/>
        </g>
        <g id="Group_159931" data-name="Group 159931" transform="translate(21.953)">
          <path id="Path_217574" data-name="Path 217574" d="M51.248,19.846H71.114V0H51.248Z" transform="translate(-51.248)" fill="#06b67a"/>
          <path id="Path_217575" data-name="Path 217575" d="M51.248,19.846h9.933V0H51.248Z" transform="translate(-51.248)" fill="#06b67a"/>
          <path id="Path_217576" data-name="Path 217576" d="M65.278,17.994l2.639-.57,1.22,3.855L65,18.194l-4.3,3.085,1.669-5.072L58,13.072h5.4L65.068,8l1.669,5.072h5.4l-6.858,4.921Z" transform="translate(-55.108 -4.573)" fill="#fff"/>
        </g>
        <g id="Group_159932" data-name="Group 159932" transform="translate(43.921)">
          <path id="Path_217577" data-name="Path 217577" d="M102.532,19.846H122.4V0H102.532Z" transform="translate(-102.532)" fill="#06b67a"/>
          <path id="Path_217578" data-name="Path 217578" d="M102.532,19.846h9.933V0h-9.933Z" transform="translate(-102.532)" fill="#06b67a"/>
          <path id="Path_217579" data-name="Path 217579" d="M123.482,12.967l-11.268,8.177,1.644-5.054-4.3-3.123h5.32l1.644-5.054,1.644,5.054Zm-6.963,5.054,3.077-.647,1.226,3.77Z" transform="translate(-106.546 -4.523)" fill="#fff"/>
        </g>
        <g id="Group_159933" data-name="Group 159933" transform="translate(65.889)">
          <path id="Path_217580" data-name="Path 217580" d="M153.815,19.846h19.866V0H153.815Z" transform="translate(-153.815)" fill="#06b67a"/>
          <path id="Path_217581" data-name="Path 217581" d="M153.815,19.846h9.933V0h-9.933Z" transform="translate(-153.815)" fill="#06b67a"/>
          <path id="Path_217582" data-name="Path 217582" d="M174.763,12.967,163.5,21.144l1.644-5.054-4.3-3.123h5.32L167.8,7.913l1.644,5.054ZM167.8,18.021l3.077-.647,1.226,3.77Z" transform="translate(-157.828 -4.523)" fill="#fff"/>
        </g>
        <g id="Group_159934" data-name="Group 159934" transform="translate(87.842)">
          <path id="Path_217583" data-name="Path 217583" d="M205.064,19.846H224.93V0H205.064Z" transform="translate(-205.064)" fill="#dcdce6"/>
          <path id="Path_217584" data-name="Path 217584" d="M205.064,19.846H215V0h-9.933Z" transform="translate(-205.064)" fill="#06b67a"/>
          <path id="Path_217585" data-name="Path 217585" d="M226.012,12.967l-11.267,8.177,1.644-5.054-4.3-3.123h5.32l1.644-5.054,1.644,5.054Zm-6.963,5.054,3.077-.647,1.226,3.77Z" transform="translate(-209.077 -4.523)" fill="#fff"/>
        </g>
      </g>
      <text id="_4.3" data-name="4.3" transform="translate(654.711 1126.344)" fill="#0d0d0d" font-size="18" font-family="Roboto-Bold, Roboto" font-weight="700"><tspan x="0" y="0">4.3</tspan></text>
      <text id="Excellent" transform="translate(815.638 1126.579)" fill="#0d0d0d" font-size="16" font-family="Roboto-Medium, Roboto" font-weight="500"><tspan x="0" y="0">Excellent</tspan></text>
      <g id="Trustpilot_Logo__2022_" data-name="Trustpilot_Logo_(2022)" transform="translate(470.367 1100.781)">
        <path id="Path_217586" data-name="Path 217586" d="M297.611,98.6h13.142v2.452h-5.167v13.783h-2.841V101.052H297.6V98.6Zm12.58,4.48h2.429v2.269h.046a2.665,2.665,0,0,1,.447-.928,4.132,4.132,0,0,1,.791-.825,4.214,4.214,0,0,1,1.031-.607,3.154,3.154,0,0,1,1.157-.229c.3,0,.516.011.63.023s.229.034.355.046v2.5c-.183-.034-.367-.057-.561-.08a4.76,4.76,0,0,0-.561-.034,3.037,3.037,0,0,0-1.237.264,2.852,2.852,0,0,0-1.008.768,3.9,3.9,0,0,0-.687,1.26,5.341,5.341,0,0,0-.252,1.73v5.591H310.18V103.08Zm18.79,11.755h-2.544V113.2h-.046a3.532,3.532,0,0,1-1.421,1.421,3.887,3.887,0,0,1-1.925.539,4.311,4.311,0,0,1-3.357-1.146,5.068,5.068,0,0,1-1.031-3.472V103.08h2.589v7.207a3.166,3.166,0,0,0,.6,2.188,2.158,2.158,0,0,0,1.661.642,3.185,3.185,0,0,0,1.363-.252,2.3,2.3,0,0,0,.882-.676,2.594,2.594,0,0,0,.493-1.008,4.964,4.964,0,0,0,.149-1.272v-6.817h2.589Zm4.411-3.77a1.994,1.994,0,0,0,.859,1.593,3.467,3.467,0,0,0,1.8.458,7.691,7.691,0,0,0,.825-.057,3.463,3.463,0,0,0,.871-.218,1.674,1.674,0,0,0,.676-.47,1.139,1.139,0,0,0,.241-.8,1.107,1.107,0,0,0-.367-.813,2.581,2.581,0,0,0-.871-.516,8.743,8.743,0,0,0-1.215-.332c-.458-.092-.917-.195-1.386-.3a13.164,13.164,0,0,1-1.4-.39,4.268,4.268,0,0,1-1.2-.619,2.721,2.721,0,0,1-.848-.985,3.081,3.081,0,0,1-.321-1.489,2.685,2.685,0,0,1,.47-1.6,3.561,3.561,0,0,1,1.18-1.043,5.47,5.47,0,0,1,1.593-.561,9.7,9.7,0,0,1,1.673-.16,7.8,7.8,0,0,1,1.741.195,4.489,4.489,0,0,1,1.5.63,3.711,3.711,0,0,1,1.111,1.123,3.91,3.91,0,0,1,.561,1.673h-2.7a1.612,1.612,0,0,0-.848-1.249,3.473,3.473,0,0,0-1.535-.321,4.82,4.82,0,0,0-.653.046,3.574,3.574,0,0,0-.71.172,1.541,1.541,0,0,0-.561.367.886.886,0,0,0-.229.63.98.98,0,0,0,.332.768,2.78,2.78,0,0,0,.859.493,8.743,8.743,0,0,0,1.214.332c.458.092.928.195,1.409.3s.928.241,1.386.39a4.185,4.185,0,0,1,1.215.619,3.05,3.05,0,0,1,.859.974,2.969,2.969,0,0,1,.332,1.455,3.166,3.166,0,0,1-.481,1.776,3.809,3.809,0,0,1-1.237,1.18,5.818,5.818,0,0,1-1.7.665,8.509,8.509,0,0,1-1.845.206,7.825,7.825,0,0,1-2.062-.252,5.021,5.021,0,0,1-1.638-.756,3.749,3.749,0,0,1-1.088-1.272,4.175,4.175,0,0,1-.424-1.81h2.612Zm8.547-7.986H343.9V99.551h2.589v3.529h2.337v1.936H346.49v6.279a6.4,6.4,0,0,0,.034.71,1.306,1.306,0,0,0,.16.5.735.735,0,0,0,.378.309,1.847,1.847,0,0,0,.687.1c.183,0,.367,0,.55-.011a3.033,3.033,0,0,0,.55-.08v2.005c-.286.034-.573.057-.836.092a6.7,6.7,0,0,1-.836.046,5.8,5.8,0,0,1-1.65-.195,2.141,2.141,0,0,1-.974-.573,1.988,1.988,0,0,1-.481-.94,7.063,7.063,0,0,1-.149-1.295v-6.932h-1.959V103.08Zm8.719,0h2.452v1.593h.046a3.2,3.2,0,0,1,1.524-1.467,5.021,5.021,0,0,1,2.12-.447,5.487,5.487,0,0,1,2.418.493,4.725,4.725,0,0,1,1.719,1.341,5.866,5.866,0,0,1,1.02,1.994,8.355,8.355,0,0,1,.344,2.429,8.444,8.444,0,0,1-.309,2.292,6.134,6.134,0,0,1-.928,1.971,4.557,4.557,0,0,1-1.581,1.363,4.69,4.69,0,0,1-2.257.516,6.33,6.33,0,0,1-1.134-.1,4.993,4.993,0,0,1-1.088-.332,3.93,3.93,0,0,1-.962-.584,3.63,3.63,0,0,1-.745-.825h-.046v5.866H350.66Zm9.051,5.889a5.853,5.853,0,0,0-.206-1.547,4.171,4.171,0,0,0-.619-1.329,3.153,3.153,0,0,0-1.02-.928,3.147,3.147,0,0,0-3.873.779,5.033,5.033,0,0,0-.825,3.025,5.8,5.8,0,0,0,.218,1.65,3.684,3.684,0,0,0,.653,1.306,3.092,3.092,0,0,0,1.031.859,3.232,3.232,0,0,0,2.9-.046,3.17,3.17,0,0,0,1.008-.94,3.9,3.9,0,0,0,.573-1.318,7.363,7.363,0,0,0,.16-1.512ZM364.283,98.6h2.589v2.452h-2.589Zm0,4.48h2.589v11.755h-2.589V103.08Zm4.9-4.48h2.589v16.235h-2.589V98.6Zm10.53,16.556a6.4,6.4,0,0,1-2.509-.47,5.258,5.258,0,0,1-3.025-3.243,7.563,7.563,0,0,1-.4-2.5,7.475,7.475,0,0,1,.4-2.475,5.588,5.588,0,0,1,1.157-1.959,5.277,5.277,0,0,1,1.868-1.283,6.936,6.936,0,0,1,5.018,0,5.258,5.258,0,0,1,3.025,3.242,7.473,7.473,0,0,1,.4,2.475,7.562,7.562,0,0,1-.4,2.5,5.587,5.587,0,0,1-1.157,1.959,5.277,5.277,0,0,1-1.868,1.283A6.4,6.4,0,0,1,379.717,115.156Zm0-2.051a3,3,0,0,0,1.5-.367,3.194,3.194,0,0,0,1.043-.951,4.268,4.268,0,0,0,.607-1.329,5.925,5.925,0,0,0,0-3.013,3.919,3.919,0,0,0-.607-1.329,3.161,3.161,0,0,0-1.043-.94,3.256,3.256,0,0,0-3,0,3.291,3.291,0,0,0-1.043.94,4.151,4.151,0,0,0-.607,1.329,5.924,5.924,0,0,0,0,3.013,4.023,4.023,0,0,0,.607,1.329,3.194,3.194,0,0,0,1.043.951,2.888,2.888,0,0,0,1.5.367Zm6.691-10.025h1.959V99.551h2.589v3.529h2.337v1.936h-2.337v6.279a6.4,6.4,0,0,0,.034.71,1.3,1.3,0,0,0,.16.5.735.735,0,0,0,.378.309,1.846,1.846,0,0,0,.687.1c.183,0,.367,0,.55-.011a3.032,3.032,0,0,0,.55-.08v2.005c-.286.034-.573.057-.836.092a6.7,6.7,0,0,1-.836.046,5.8,5.8,0,0,1-1.65-.195,2.141,2.141,0,0,1-.974-.573,1.988,1.988,0,0,1-.481-.94,7.063,7.063,0,0,1-.149-1.295v-6.932h-1.959V103.08Z" transform="translate(-263.502 -87.303)" fill="#191919"/>
        <path id="Path_217587" data-name="Path 217587" d="M31.084,11.3H19.214L15.548,0,11.87,11.3,0,11.286l9.613,6.989L5.935,29.561l9.613-6.978,9.6,6.978L21.483,18.275Z" fill="#00b67a"/>
        <path id="Path_217588" data-name="Path 217588" d="M142.46,162.055l-.825-2.555-5.935,4.308Z" transform="translate(-120.152 -141.225)" fill="#005128"/>
      </g>
      <line id="Line_129" data-name="Line 129" y2="45" transform="translate(627.054 1097.5)" fill="none" stroke="#707070" stroke-width="1" opacity="0.095"/>
    </g>
    <line id="Line_132" data-name="Line 132" x2="440" transform="translate(463.5 1080.5)" fill="none" stroke="#707070" stroke-width="0.5" opacity="0.5"/>
  </g>
</svg>
