<svg xmlns="http://www.w3.org/2000/svg" width="2173.004" height="319.619" viewBox="0 0 2173.004 319.619">
  <g id="Group_159977" data-name="Group 159977" transform="translate(33.35 -1449.042)" opacity="0.15">
    <path id="_Path_" data-name="&lt;Path&gt;" d="M1497.868,1442.008H588.659l-29.889,0V1232.043h39.435v145.626h4.335v5.534h8.34V1178.771h7.337v-8.3h5.673v-10.033h6v-12.454h5.337v-7.954h2.224v-17.64h3.273v17.64h2.224v7.954h5.337v12.454h6v10.033h5.669v8.3h7.34V1286.8h68.665v-3.51h2.614v-26.259h11.564v83.019h15.261v-42.675h89.311v52.014h2.005v2.335h1.914v1.9h2.17v1.554h4.836v-4.494h14.094v-90.153h3.587v-3.5h4.42v-3.113h4.836v-3.634h5.088v-2.937h5.168l69.633-44.712V1383.2h9.006v-61.224H1011.5V1305.2h2.666v-2.506h2.754v-3.2h2.668v-3.547h2.836v-3.284h2.752v-2.856h79.954v2.856h2.751v3.284h2.838v3.547h2.666v3.2h2.755v2.506h2.666v16.778h53.807l8.838,9.164,5.757,5.969v33.121h25.269v-60.015h24.016v-46.871l46.775.422v-51.2l81.376,44.856v93.26l-6.731,3.457h29.521v-120.72h53.036v160.479h57.4v12.032h8.715v36.069Z" transform="translate(-592.12 326.651)" fill="#2c0562"/>
    <path id="_Path_2" data-name="&lt;Path&gt;" d="M1589.153,2095.846v.724H24.48v-.724l11.4-4.684v-4.727h6.582v4.7H53.1v-10.747h19.5v11.034h5.067v-24.162h40.014l4.052-4.2h16.833v-7.353l10.82-11.215v-23.859h-4.553v-4.011h34.7v-57.559h-3.8V1955.6H186.66v-2.884h56.056v3.383h13.032v5.549h-3.72v26.792h55.859l2.447,2.534,2.44,2.532h-5.116v27.76H317.2V1904.929H345.88v-3.62h13.444V1896.6h40.5v92.323h13.788v-81.273H409.6v-4.892h9.6V1900.4h7.507v-42.177h-2.1v-3.985h14.319v-1.987h3.257v-2.115h6.69v-13.275h.991v-12.188h.642V1814.9h1.471v9.777h.638v12.188h.991v13.275H460.3v2.115h3.257v1.987h14.315v3.985h-2.1V1900.4h7.507v2.351h9.606v4.892h-4.015v105.529H500.72v-67.337h11.521l4.309-4.466,4.306-4.469h55.976v2.7h2.29v1.533H582.3v2.17h6.288v1.848h8.147v83.083h7.213V2002.68h6.987V1989.4h33.277l3.085,3.2,3.085,3.194v5.915h7.1v-26.307h24.961v-43.689h26.01v36.026h7.509v7.06h16.931v32.4h8.9v-80.915h7.314v-6.235H754V1911.6l14.585-8.646,14.823-8.65,6.161,3.6,8.664,5.052,14.585,8.646v8.452h4.888v6.235h7.316v80.915h8.9V1949.28h-2.1v-6.127h12.954v-4.11h47.093v4.748H918.4v5.306h-3.725v71.442h9.312V2003.4H919.1l4.537-4.708h46.9v-48.875h-3.956V1945h3.956v-4.349h62.222V1945h3.958v4.824h-3.958V1998.7h13.835V1875.966l14.479,3.01,34.922,7.258,32.465,6.745v110.789h8.726v-27.517l22.7-23.536v85.08h10.827v-96.661h23.386v-11.22h52.722l2.956,1.635,4.786,2.649,10.237,5.669h23.739v34.4l23.219,7.242v9.771h15.884l5.935,6.154v10.139h10.477v-98.655h61.269l9.6-9.96h25.314v9.6h9.074v115.423h11.446v6.582H1470.9l10.176,10.551h15.637v18.735h4.253v11.029h16.705l5.565,5.772h10.629v2.089h11.227v2.625h9.792v-2.625h3.377v2.625l8.272,2.975v3.852l4.391,4.356h15.047Z" transform="translate(550.5 -327.91)" fill="#2c0562"/>
  </g>
</svg>
