<svg xmlns="http://www.w3.org/2000/svg" width="440" height="150" viewBox="0 0 440 150">
  <g id="YearsofExperience" transform="translate(-135.14 -520.201)">
    <rect id="Rectangle_4910" data-name="Rectangle 4910" width="440" height="150" transform="translate(135.14 520.201)" fill="#fff" opacity="0"/>
    <g id="Source" transform="translate(8.871 442.723)">
      <g id="Group_157764" data-name="Group 157764" transform="translate(306.769 80.437)">
        <path id="Path_217594" data-name="Path 217594" d="M-30.375-5.7a7.935,7.935,0,0,1-3.16-1.534,2.93,2.93,0,0,1-.989-2.246,3.1,3.1,0,0,1,1.208-2.5,4.8,4.8,0,0,1,3.142-.989,5.243,5.243,0,0,1,2.351.51,3.866,3.866,0,0,1,1.6,1.406,3.6,3.6,0,0,1,.567,1.96h-1.7a2.327,2.327,0,0,0-.738-1.824,3.009,3.009,0,0,0-2.083-.664,3.078,3.078,0,0,0-1.947.549,1.831,1.831,0,0,0-.7,1.525,1.648,1.648,0,0,0,.664,1.323A6.514,6.514,0,0,0-29.9-7.2a10.46,10.46,0,0,1,2.5.989,3.788,3.788,0,0,1,1.336,1.261,3.219,3.219,0,0,1,.435,1.7A2.99,2.99,0,0,1-26.842-.76a5.171,5.171,0,0,1-3.243.936A6.015,6.015,0,0,1-32.546-.33a4.142,4.142,0,0,1-1.762-1.384,3.378,3.378,0,0,1-.62-2h1.7a2.2,2.2,0,0,0,.857,1.833,3.608,3.608,0,0,0,2.29.672,3.317,3.317,0,0,0,2.048-.545,1.77,1.77,0,0,0,.712-1.485,1.738,1.738,0,0,0-.659-1.455A7.6,7.6,0,0,0-30.375-5.7Zm8.859-6.108v2.3h1.775v1.257h-1.775v5.9a1.317,1.317,0,0,0,.237.857,1,1,0,0,0,.809.286,3.937,3.937,0,0,0,.773-.105V0a4.714,4.714,0,0,1-1.248.176,2.025,2.025,0,0,1-1.644-.659,2.832,2.832,0,0,1-.554-1.872v-5.9h-1.731V-9.51h1.731v-2.3ZM-11.971-.94A3.454,3.454,0,0,1-14.757.176a2.956,2.956,0,0,1-2.316-.883,3.823,3.823,0,0,1-.8-2.615V-9.51h1.626v6.144q0,2.162,1.758,2.162a2.434,2.434,0,0,0,2.479-1.389V-9.51h1.626V0h-1.547Zm3.656-3.894a5.571,5.571,0,0,1,1.037-3.52A3.28,3.28,0,0,1-4.562-9.686,3.3,3.3,0,0,1-1.916-8.543V-13.5H-.29V0H-1.784l-.079-1.02A3.311,3.311,0,0,1-4.579.176,3.248,3.248,0,0,1-7.273-1.178,5.634,5.634,0,0,1-8.314-4.711Zm1.626.185a4.218,4.218,0,0,0,.668,2.531A2.159,2.159,0,0,0-4.175-1.2,2.372,2.372,0,0,0-1.916-2.593V-6.961A2.39,2.39,0,0,0-4.157-8.306a2.17,2.17,0,0,0-1.863.923A4.644,4.644,0,0,0-6.688-4.649ZM6.179.176a4.155,4.155,0,0,1-3.146-1.27,4.714,4.714,0,0,1-1.213-3.4v-.3A5.707,5.707,0,0,1,2.36-7.317a4.217,4.217,0,0,1,1.512-1.74,3.8,3.8,0,0,1,2.1-.628A3.562,3.562,0,0,1,8.859-8.464a5.289,5.289,0,0,1,1.028,3.5v.677H3.445a3.38,3.38,0,0,0,.822,2.272,2.583,2.583,0,0,0,2,.866A2.832,2.832,0,0,0,7.726-1.5a3.666,3.666,0,0,0,1.046-.932l.993.773A3.993,3.993,0,0,1,6.179.176Zm-.2-8.525a2.169,2.169,0,0,0-1.652.716A3.482,3.482,0,0,0,3.5-5.625H8.262v-.123a3.1,3.1,0,0,0-.668-1.92A2.042,2.042,0,0,0,5.977-8.35Zm7.33-1.16.053,1.2a3.465,3.465,0,0,1,2.848-1.371q3.015,0,3.041,3.4V0H17.622V-6.293a2.189,2.189,0,0,0-.47-1.521,1.884,1.884,0,0,0-1.437-.492,2.347,2.347,0,0,0-1.389.422,2.865,2.865,0,0,0-.932,1.107V0H11.769V-9.51Zm10.6-2.3v2.3h1.775v1.257H23.906v5.9a1.317,1.317,0,0,0,.237.857,1,1,0,0,0,.809.286,3.937,3.937,0,0,0,.773-.105V0a4.714,4.714,0,0,1-1.248.176,2.025,2.025,0,0,1-1.644-.659,2.832,2.832,0,0,1-.554-1.872v-5.9H20.549V-9.51H22.28v-2.3Zm9.211,9.29a1.2,1.2,0,0,0-.5-1.024,4.78,4.78,0,0,0-1.731-.628,8.186,8.186,0,0,1-1.96-.633,2.788,2.788,0,0,1-1.072-.879A2.1,2.1,0,0,1,27.51-6.9,2.467,2.467,0,0,1,28.5-8.877a3.861,3.861,0,0,1,2.527-.809,3.974,3.974,0,0,1,2.624.835,2.652,2.652,0,0,1,1.006,2.136H33.021a1.468,1.468,0,0,0-.567-1.151,2.124,2.124,0,0,0-1.428-.483,2.223,2.223,0,0,0-1.389.387,1.217,1.217,0,0,0-.5,1.011.986.986,0,0,0,.466.888,5.731,5.731,0,0,0,1.683.571,8.77,8.77,0,0,1,1.973.65,2.878,2.878,0,0,1,1.121.91,2.237,2.237,0,0,1,.365,1.3,2.434,2.434,0,0,1-1.02,2.043,4.277,4.277,0,0,1-2.646.769,4.789,4.789,0,0,1-2.021-.4,3.288,3.288,0,0,1-1.375-1.129,2.722,2.722,0,0,1-.5-1.569h1.626a1.683,1.683,0,0,0,.655,1.3,2.54,2.54,0,0,0,1.613.479,2.622,2.622,0,0,0,1.481-.374A1.148,1.148,0,0,0,33.117-2.522Zm-57.3,16.977h-5.062v3.428H-23.3V20h-8.578V7.2h8.561V9.339h-5.924v3.05h5.063Zm4.6-3.964.079,1.1a3.32,3.32,0,0,1,2.733-1.274,2.759,2.759,0,0,1,2.25.888,4.142,4.142,0,0,1,.756,2.654V20h-2.54V13.918a1.648,1.648,0,0,0-.352-1.173,1.574,1.574,0,0,0-1.169-.365,1.747,1.747,0,0,0-1.608.914V20h-2.54V10.49ZM-6.5,12.872a6.9,6.9,0,0,0-.914-.07,1.86,1.86,0,0,0-1.89.976V20h-2.54V10.49h2.4l.07,1.134a2.354,2.354,0,0,1,2.118-1.31,2.662,2.662,0,0,1,.791.114Zm.51,2.285a5.64,5.64,0,0,1,.545-2.522,3.989,3.989,0,0,1,1.569-1.714A4.577,4.577,0,0,1-1.5,10.314a4.33,4.33,0,0,1,3.142,1.178A4.727,4.727,0,0,1,3,14.691l.018.65A4.97,4.97,0,0,1,1.8,18.853a4.247,4.247,0,0,1-3.278,1.323,4.268,4.268,0,0,1-3.283-1.318A5.058,5.058,0,0,1-5.99,15.271Zm2.54.185a3.545,3.545,0,0,0,.51,2.07,1.682,1.682,0,0,0,1.459.716A1.686,1.686,0,0,0-.04,17.42a3.879,3.879,0,0,0,.519-2.263A3.51,3.51,0,0,0-.04,13.1,1.686,1.686,0,0,0-1.5,12.371,1.659,1.659,0,0,0-2.94,13.1,3.944,3.944,0,0,0-3.45,15.342ZM7.264,20H4.715V6.5H7.264Zm4.772,0H9.488V6.5h2.549Zm6.469.176A4.668,4.668,0,0,1,15.1,18.893a4.561,4.561,0,0,1-1.314-3.419v-.246a5.745,5.745,0,0,1,.554-2.562,4.064,4.064,0,0,1,1.569-1.74,4.4,4.4,0,0,1,2.316-.611,3.947,3.947,0,0,1,3.072,1.23,5,5,0,0,1,1.121,3.489v1.037H16.361a2.36,2.36,0,0,0,.743,1.494,2.245,2.245,0,0,0,1.569.563,2.742,2.742,0,0,0,2.294-1.063l1.248,1.4a3.813,3.813,0,0,1-1.547,1.261A5.075,5.075,0,0,1,18.505,20.176Zm-.29-7.8a1.591,1.591,0,0,0-1.226.51,2.634,2.634,0,0,0-.6,1.459H19.92v-.2a1.878,1.878,0,0,0-.457-1.305A1.642,1.642,0,0,0,18.215,12.371Zm5.247,2.8a5.731,5.731,0,0,1,1-3.542,3.237,3.237,0,0,1,2.729-1.318,2.913,2.913,0,0,1,2.294,1.037V6.5h2.549V20H29.738l-.123-1.011a2.989,2.989,0,0,1-2.443,1.187,3.228,3.228,0,0,1-2.694-1.323A5.916,5.916,0,0,1,23.462,15.175Zm2.54.185a3.744,3.744,0,0,0,.466,2.048,1.518,1.518,0,0,0,1.354.712,1.7,1.7,0,0,0,1.661-.993V13.373a1.676,1.676,0,0,0-1.644-.993Q26,12.38,26,15.359Z" transform="translate(39 92)" fill="#20a2bb"/>
        <path id="Path_217593" data-name="Path 217593" d="M-32.021-34.79c-5,0-7.987,2.94-7.987,7.987v2.352l5,.245v-1.715c0-2.891.98-4.067,2.891-4.067s2.891,1.176,2.891,3.43v.686c0,2.793-.686,5.194-3.087,9.065l-7.693,12.4V0h15.974V-4.9H-34.08l5.782-9.261c3.283-5.292,4.263-8.183,4.263-11.515V-26.95C-24.035-31.9-27.024-34.79-32.021-34.79Zm20.09,0c-5.194,0-8.379,3.283-8.379,8.673V-8.183c0,5.39,3.185,8.673,8.379,8.673s8.379-3.283,8.379-8.673V-26.117C-3.552-31.507-6.738-34.79-11.932-34.79Zm0,4.8c2.058,0,3.185,1.372,3.185,3.92V-8.232c0,2.548-1.127,3.92-3.185,3.92s-3.185-1.372-3.185-3.92V-26.068C-15.117-28.616-13.99-29.988-11.932-29.988Zm21.266-4.8c-5.194,0-8.379,3.283-8.379,8.673V-8.183C.955-2.793,4.141.49,9.334.49s8.379-3.283,8.379-8.673V-26.117C17.714-31.507,14.529-34.79,9.334-34.79Zm0,4.8c2.058,0,3.185,1.372,3.185,3.92V-8.232c0,2.548-1.127,3.92-3.185,3.92S6.149-5.684,6.149-8.232V-26.068C6.149-28.616,7.276-29.988,9.334-29.988ZM30.6-34.79c-5.194,0-8.379,3.283-8.379,8.673V-8.183C22.221-2.793,25.406.49,30.6.49s8.379-3.283,8.379-8.673V-26.117C38.979-31.507,35.794-34.79,30.6-34.79Zm0,4.8c2.058,0,3.185,1.372,3.185,3.92V-8.232c0,2.548-1.127,3.92-3.185,3.92s-3.185-1.372-3.185-3.92V-26.068C27.415-28.616,28.542-29.988,30.6-29.988Z" transform="translate(39 64.998)" fill="#021134"/>
      </g>
      <g id="Group_159937" data-name="Group 159937" transform="translate(453.769 80.437)">
        <path id="Path_217596" data-name="Path 217596" d="M-24.552-4.061a4.708,4.708,0,0,1-1.5,3.133A4.911,4.911,0,0,1-29.4.176,4.509,4.509,0,0,1-33.038-1.45,6.542,6.542,0,0,1-34.4-5.8v-1.23a7.291,7.291,0,0,1,.637-3.138,4.76,4.76,0,0,1,1.806-2.079,5.029,5.029,0,0,1,2.707-.725,4.624,4.624,0,0,1,3.27,1.138,4.765,4.765,0,0,1,1.433,3.151h-1.7A3.66,3.66,0,0,0-27.2-10.9a2.891,2.891,0,0,0-2.052-.686,3.02,3.02,0,0,0-2.536,1.2,5.484,5.484,0,0,0-.918,3.4v1.239a5.637,5.637,0,0,0,.87,3.313A2.812,2.812,0,0,0-29.4-1.2a3.247,3.247,0,0,0,2.158-.637,3.536,3.536,0,0,0,1-2.219Zm1.617-.782a5.617,5.617,0,0,1,.549-2.514,4.1,4.1,0,0,1,1.529-1.723,4.163,4.163,0,0,1,2.237-.606,4.01,4.01,0,0,1,3.142,1.345,5.174,5.174,0,0,1,1.2,3.577v.114a5.666,5.666,0,0,1-.532,2.492A4.038,4.038,0,0,1-16.33-.439,4.211,4.211,0,0,1-18.6.176a4,4,0,0,1-3.133-1.345,5.147,5.147,0,0,1-1.2-3.56Zm1.635.193a4.068,4.068,0,0,0,.734,2.54,2.349,2.349,0,0,0,1.964.958,2.335,2.335,0,0,0,1.969-.971,4.449,4.449,0,0,0,.729-2.72,4.061,4.061,0,0,0-.743-2.536A2.361,2.361,0,0,0-18.62-8.35a2.335,2.335,0,0,0-1.942.958A4.416,4.416,0,0,0-21.3-4.649ZM-6.368-.94A3.454,3.454,0,0,1-9.154.176,2.956,2.956,0,0,1-11.47-.708a3.823,3.823,0,0,1-.8-2.615V-9.51h1.626v6.144q0,2.162,1.758,2.162A2.434,2.434,0,0,0-6.412-2.593V-9.51h1.626V0H-6.333ZM-.778-9.51l.053,1.2A3.465,3.465,0,0,1,2.123-9.686q3.015,0,3.041,3.4V0H3.538V-6.293a2.189,2.189,0,0,0-.47-1.521A1.884,1.884,0,0,0,1.63-8.306a2.347,2.347,0,0,0-1.389.422A2.865,2.865,0,0,0-.69-6.776V0H-2.316V-9.51Zm10.6-2.3v2.3H11.6v1.257H9.822v5.9a1.317,1.317,0,0,0,.237.857,1,1,0,0,0,.809.286,3.937,3.937,0,0,0,.773-.105V0a4.714,4.714,0,0,1-1.248.176A2.025,2.025,0,0,1,8.75-.483,2.832,2.832,0,0,1,8.2-2.355v-5.9H6.464V-9.51H8.2v-2.3ZM15.262,0H13.636V-9.51h1.626ZM13.5-12.032a.971.971,0,0,1,.242-.668.907.907,0,0,1,.716-.272.922.922,0,0,1,.721.272.96.96,0,0,1,.246.668.929.929,0,0,1-.246.659.938.938,0,0,1-.721.264.924.924,0,0,1-.716-.264A.938.938,0,0,1,13.5-12.032ZM21.81.176a4.155,4.155,0,0,1-3.146-1.27,4.714,4.714,0,0,1-1.213-3.4v-.3a5.707,5.707,0,0,1,.541-2.527A4.217,4.217,0,0,1,19.5-9.057a3.8,3.8,0,0,1,2.1-.628,3.562,3.562,0,0,1,2.883,1.222,5.289,5.289,0,0,1,1.028,3.5v.677H19.077A3.38,3.38,0,0,0,19.9-2.017a2.583,2.583,0,0,0,2,.866A2.832,2.832,0,0,0,23.357-1.5,3.666,3.666,0,0,0,24.4-2.435l.993.773A3.993,3.993,0,0,1,21.81.176Zm-.2-8.525a2.169,2.169,0,0,0-1.652.716,3.482,3.482,0,0,0-.826,2.008h4.764v-.123a3.1,3.1,0,0,0-.668-1.92A2.042,2.042,0,0,0,21.608-8.35ZM32.937-2.522a1.2,1.2,0,0,0-.5-1.024,4.78,4.78,0,0,0-1.731-.628,8.186,8.186,0,0,1-1.96-.633,2.788,2.788,0,0,1-1.072-.879A2.1,2.1,0,0,1,27.33-6.9a2.467,2.467,0,0,1,.989-1.978,3.861,3.861,0,0,1,2.527-.809,3.974,3.974,0,0,1,2.624.835,2.652,2.652,0,0,1,1.006,2.136H32.84a1.468,1.468,0,0,0-.567-1.151,2.124,2.124,0,0,0-1.428-.483,2.223,2.223,0,0,0-1.389.387,1.217,1.217,0,0,0-.5,1.011.986.986,0,0,0,.466.888,5.731,5.731,0,0,0,1.683.571,8.77,8.77,0,0,1,1.973.65,2.878,2.878,0,0,1,1.121.91,2.237,2.237,0,0,1,.365,1.3,2.434,2.434,0,0,1-1.02,2.043A4.277,4.277,0,0,1,30.9.176a4.789,4.789,0,0,1-2.021-.4A3.288,3.288,0,0,1,27.5-1.358,2.722,2.722,0,0,1,27-2.927H28.63a1.683,1.683,0,0,0,.655,1.3,2.54,2.54,0,0,0,1.613.479,2.622,2.622,0,0,0,1.481-.374A1.148,1.148,0,0,0,32.937-2.522ZM-29.219,15.315h-2.1V20h-2.637V7.2H-29.2a5.375,5.375,0,0,1,3.5,1.011,3.488,3.488,0,0,1,1.23,2.856,3.937,3.937,0,0,1-.567,2.184,3.866,3.866,0,0,1-1.718,1.393l2.769,5.229V20h-2.83Zm-2.1-2.136h2.127a2.178,2.178,0,0,0,1.538-.505,1.806,1.806,0,0,0,.545-1.393,1.933,1.933,0,0,0-.514-1.424A2.137,2.137,0,0,0-29.2,9.339H-31.32Zm13.061,7a4.668,4.668,0,0,1-3.406-1.283,4.561,4.561,0,0,1-1.314-3.419v-.246a5.745,5.745,0,0,1,.554-2.562,4.064,4.064,0,0,1,1.569-1.74,4.4,4.4,0,0,1,2.316-.611,3.947,3.947,0,0,1,3.072,1.23,5,5,0,0,1,1.121,3.489v1.037H-20.4a2.36,2.36,0,0,0,.743,1.494,2.245,2.245,0,0,0,1.569.563A2.742,2.742,0,0,0-15.8,17.064l1.248,1.4A3.813,3.813,0,0,1-16.1,19.723,5.075,5.075,0,0,1-18.259,20.176Zm-.29-7.8a1.591,1.591,0,0,0-1.226.51,2.634,2.634,0,0,0-.6,1.459h3.533v-.2a1.878,1.878,0,0,0-.457-1.305A1.642,1.642,0,0,0-18.549,12.371ZM-7.4,20a2.821,2.821,0,0,1-.255-.853,3.073,3.073,0,0,1-2.4,1.028,3.376,3.376,0,0,1-2.316-.809,2.6,2.6,0,0,1-.918-2.039,2.687,2.687,0,0,1,1.121-2.32,5.529,5.529,0,0,1,3.239-.817h1.169v-.545a1.567,1.567,0,0,0-.338-1.055,1.331,1.331,0,0,0-1.068-.4,1.513,1.513,0,0,0-1.006.308,1.045,1.045,0,0,0-.365.844h-2.54a2.551,2.551,0,0,1,.51-1.529,3.37,3.37,0,0,1,1.441-1.1,5.253,5.253,0,0,1,2.092-.4A4.15,4.15,0,0,1-6.24,11.2a3.09,3.09,0,0,1,1.033,2.483V17.8a4.546,4.546,0,0,0,.378,2.048V20Zm-2.1-1.767a2.188,2.188,0,0,0,1.037-.25,1.645,1.645,0,0,0,.7-.672V15.676h-.949q-1.907,0-2.03,1.318l-.009.149a1.017,1.017,0,0,0,.334.782A1.3,1.3,0,0,0-9.5,18.233ZM.7,18.128a1.666,1.666,0,0,0,1.143-.387A1.355,1.355,0,0,0,2.3,16.713H4.68a3.258,3.258,0,0,1-.527,1.771,3.48,3.48,0,0,1-1.419,1.248,4.442,4.442,0,0,1-1.991.444,4.129,4.129,0,0,1-3.217-1.3A5.13,5.13,0,0,1-3.652,15.3v-.167a5.071,5.071,0,0,1,1.169-3.507,4.08,4.08,0,0,1,3.208-1.31A4,4,0,0,1,3.586,11.33a3.594,3.594,0,0,1,1.094,2.7H2.3a1.731,1.731,0,0,0-.457-1.2,1.528,1.528,0,0,0-1.16-.461,1.531,1.531,0,0,0-1.34.646,3.739,3.739,0,0,0-.453,2.1v.264a3.786,3.786,0,0,0,.448,2.109A1.55,1.55,0,0,0,.7,18.128Zm7.91-6.6a3.17,3.17,0,0,1,2.54-1.213q3.094,0,3.138,3.595V20h-2.54V13.979a1.767,1.767,0,0,0-.352-1.208,1.507,1.507,0,0,0-1.169-.391,1.729,1.729,0,0,0-1.617.861V20H6.069V6.5h2.54ZM20.58,20.176a4.668,4.668,0,0,1-3.406-1.283,4.561,4.561,0,0,1-1.314-3.419v-.246a5.745,5.745,0,0,1,.554-2.562,4.064,4.064,0,0,1,1.569-1.74,4.4,4.4,0,0,1,2.316-.611,3.947,3.947,0,0,1,3.072,1.23,5,5,0,0,1,1.121,3.489v1.037H18.435a2.36,2.36,0,0,0,.743,1.494,2.245,2.245,0,0,0,1.569.563,2.742,2.742,0,0,0,2.294-1.063l1.248,1.4a3.813,3.813,0,0,1-1.547,1.261A5.075,5.075,0,0,1,20.58,20.176Zm-.29-7.8a1.591,1.591,0,0,0-1.226.51,2.634,2.634,0,0,0-.6,1.459h3.533v-.2a1.878,1.878,0,0,0-.457-1.305A1.642,1.642,0,0,0,20.29,12.371Zm5.247,2.8a5.731,5.731,0,0,1,1-3.542,3.237,3.237,0,0,1,2.729-1.318,2.913,2.913,0,0,1,2.294,1.037V6.5h2.549V20H31.812l-.123-1.011a2.989,2.989,0,0,1-2.443,1.187,3.228,3.228,0,0,1-2.694-1.323A5.916,5.916,0,0,1,25.537,15.175Zm2.54.185a3.744,3.744,0,0,0,.466,2.048,1.518,1.518,0,0,0,1.354.712,1.7,1.7,0,0,0,1.661-.993V13.373a1.676,1.676,0,0,0-1.644-.993Q28.077,12.38,28.077,15.359Z" transform="translate(39 91)" fill="#20a2bb" opacity="0.8"/>
        <path id="Path_217595" data-name="Path 217595" d="M-10.756-34.79c-5,0-7.987,2.94-7.987,7.987v2.352l5,.245v-1.715c0-2.891.98-4.067,2.891-4.067s2.891,1.176,2.891,3.43v.686c0,2.793-.686,5.194-3.087,9.065l-7.693,12.4V0H-2.768V-4.9H-12.814l5.782-9.261c3.283-5.292,4.263-8.183,4.263-11.515V-26.95C-2.768-31.9-5.758-34.79-10.756-34.79Zm20.09,0c-5.194,0-8.379,3.283-8.379,8.673V-8.183C.955-2.793,4.141.49,9.334.49s8.379-3.283,8.379-8.673V-26.117C17.714-31.507,14.529-34.79,9.334-34.79Zm0,4.8c2.058,0,3.185,1.372,3.185,3.92V-8.232c0,2.548-1.127,3.92-3.185,3.92S6.149-5.684,6.149-8.232V-26.068C6.149-28.616,7.276-29.988,9.334-29.988Z" transform="translate(39 64.998)" fill="#021134" opacity="0.8"/>
      </g>
      <g id="Group_159938" data-name="Group 159938" transform="translate(160.769 80.437)">
        <path id="Path_217598" data-name="Path 217598" d="M-27.853-6.372l3.34-6.425H-22.6l-4.412,8.024V0H-28.7V-4.772L-33.108-12.8h1.934Zm10.6,6.548A4.155,4.155,0,0,1-20.4-1.094a4.714,4.714,0,0,1-1.213-3.4v-.3a5.707,5.707,0,0,1,.541-2.527,4.217,4.217,0,0,1,1.512-1.74,3.8,3.8,0,0,1,2.1-.628,3.562,3.562,0,0,1,2.883,1.222,5.289,5.289,0,0,1,1.028,3.5v.677h-6.442a3.38,3.38,0,0,0,.822,2.272,2.583,2.583,0,0,0,2,.866A2.832,2.832,0,0,0-15.706-1.5a3.666,3.666,0,0,0,1.046-.932l.993.773A3.993,3.993,0,0,1-17.253.176Zm-.2-8.525a2.169,2.169,0,0,0-1.652.716,3.482,3.482,0,0,0-.826,2.008h4.764v-.123a3.1,3.1,0,0,0-.668-1.92A2.042,2.042,0,0,0-17.455-8.35ZM-5.792,0a3.416,3.416,0,0,1-.229-1A3.628,3.628,0,0,1-8.728.176a3.357,3.357,0,0,1-2.307-.8,2.573,2.573,0,0,1-.9-2.017,2.688,2.688,0,0,1,1.129-2.307,5.325,5.325,0,0,1,3.177-.822h1.582v-.747a1.826,1.826,0,0,0-.51-1.358,2.049,2.049,0,0,0-1.5-.505,2.371,2.371,0,0,0-1.459.439,1.3,1.3,0,0,0-.589,1.063h-1.635a2.244,2.244,0,0,1,.505-1.375A3.449,3.449,0,0,1-9.866-9.3a4.613,4.613,0,0,1,1.9-.387,3.759,3.759,0,0,1,2.575.822A2.964,2.964,0,0,1-4.421-6.6v4.377A5.351,5.351,0,0,0-4.087-.141V0Zm-2.7-1.239a2.858,2.858,0,0,0,1.45-.4,2.392,2.392,0,0,0,.993-1.028V-4.614H-7.321q-2.988,0-2.988,1.749a1.48,1.48,0,0,0,.51,1.2A1.959,1.959,0,0,0-8.49-1.239ZM2.725-8.051a4.873,4.873,0,0,0-.8-.062A2.143,2.143,0,0,0-.246-6.75V0H-1.872V-9.51H-.29l.026,1.1A2.532,2.532,0,0,1,2-9.686a1.661,1.661,0,0,1,.721.123ZM9.756-2.522a1.2,1.2,0,0,0-.5-1.024,4.78,4.78,0,0,0-1.731-.628,8.186,8.186,0,0,1-1.96-.633A2.788,2.788,0,0,1,4.5-5.687,2.1,2.1,0,0,1,4.148-6.9a2.467,2.467,0,0,1,.989-1.978,3.861,3.861,0,0,1,2.527-.809,3.974,3.974,0,0,1,2.624.835,2.652,2.652,0,0,1,1.006,2.136H9.659a1.468,1.468,0,0,0-.567-1.151A2.124,2.124,0,0,0,7.664-8.35a2.223,2.223,0,0,0-1.389.387,1.217,1.217,0,0,0-.5,1.011.986.986,0,0,0,.466.888,5.731,5.731,0,0,0,1.683.571,8.77,8.77,0,0,1,1.973.65,2.878,2.878,0,0,1,1.121.91,2.237,2.237,0,0,1,.365,1.3,2.434,2.434,0,0,1-1.02,2.043A4.277,4.277,0,0,1,7.717.176,4.789,4.789,0,0,1,5.7-.229,3.288,3.288,0,0,1,4.32-1.358a2.722,2.722,0,0,1-.5-1.569H5.449A1.683,1.683,0,0,0,6.1-1.63a2.54,2.54,0,0,0,1.613.479A2.622,2.622,0,0,0,9.2-1.525,1.148,1.148,0,0,0,9.756-2.522Zm7.77-2.32a5.617,5.617,0,0,1,.549-2.514A4.1,4.1,0,0,1,19.6-9.079a4.163,4.163,0,0,1,2.237-.606,4.01,4.01,0,0,1,3.142,1.345,5.174,5.174,0,0,1,1.2,3.577v.114a5.666,5.666,0,0,1-.532,2.492A4.038,4.038,0,0,1,24.13-.439a4.211,4.211,0,0,1-2.272.615,4,4,0,0,1-3.133-1.345,5.147,5.147,0,0,1-1.2-3.56Zm1.635.193a4.068,4.068,0,0,0,.734,2.54,2.349,2.349,0,0,0,1.964.958,2.335,2.335,0,0,0,1.969-.971,4.449,4.449,0,0,0,.729-2.72,4.061,4.061,0,0,0-.743-2.536,2.361,2.361,0,0,0-1.973-.971,2.335,2.335,0,0,0-1.942.958A4.416,4.416,0,0,0,19.16-4.649ZM29.021,0V-8.253h-1.5V-9.51h1.5v-.976a3.238,3.238,0,0,1,.817-2.364,3.088,3.088,0,0,1,2.312-.835,4.267,4.267,0,0,1,1.116.149l-.088,1.318A4.67,4.67,0,0,0,32.3-12.3a1.589,1.589,0,0,0-1.222.461,1.868,1.868,0,0,0-.431,1.323v1h2.03v1.257h-2.03V0ZM-35.864,14.454h-5.062v3.428h5.941V20h-8.578V7.2H-35V9.339h-5.924v3.05h5.063Zm5.88-1.125,1.6-2.839h2.716l-2.707,4.658L-25.554,20h-2.725l-1.7-2.988L-31.663,20H-34.4l2.821-4.852-2.7-4.658h2.725Zm14.1,2a5.7,5.7,0,0,1-1,3.52,3.2,3.2,0,0,1-2.694,1.323,2.963,2.963,0,0,1-2.329-1v4.482h-2.54V10.49h2.355l.088.932A2.985,2.985,0,0,1-19.6,10.314a3.22,3.22,0,0,1,2.733,1.3,5.858,5.858,0,0,1,.976,3.586Zm-2.54-.185A3.743,3.743,0,0,0-18.9,13.1a1.532,1.532,0,0,0-1.367-.721,1.663,1.663,0,0,0-1.644.914v3.894a1.692,1.692,0,0,0,1.661.94Q-18.426,18.128-18.426,15.148Zm8.49,5.027a4.668,4.668,0,0,1-3.406-1.283,4.561,4.561,0,0,1-1.314-3.419v-.246a5.745,5.745,0,0,1,.554-2.562,4.064,4.064,0,0,1,1.569-1.74,4.4,4.4,0,0,1,2.316-.611,3.947,3.947,0,0,1,3.072,1.23,5,5,0,0,1,1.121,3.489v1.037h-6.056a2.36,2.36,0,0,0,.743,1.494,2.245,2.245,0,0,0,1.569.563,2.742,2.742,0,0,0,2.294-1.063l1.248,1.4a3.813,3.813,0,0,1-1.547,1.261A5.075,5.075,0,0,1-9.936,20.176Zm-.29-7.8a1.591,1.591,0,0,0-1.226.51,2.634,2.634,0,0,0-.6,1.459h3.533v-.2a1.878,1.878,0,0,0-.457-1.305A1.642,1.642,0,0,0-10.226,12.371Zm10.986.5a6.9,6.9,0,0,0-.914-.07,1.86,1.86,0,0,0-1.89.976V20h-2.54V10.49h2.4l.07,1.134A2.354,2.354,0,0,1,0,10.314a2.662,2.662,0,0,1,.791.114ZM4.663,20H2.114V10.49H4.663ZM1.964,8.029a1.251,1.251,0,0,1,.382-.94A1.436,1.436,0,0,1,3.388,6.72a1.44,1.44,0,0,1,1.037.369,1.342,1.342,0,0,1,0,1.89,1.443,1.443,0,0,1-1.033.369,1.443,1.443,0,0,1-1.033-.369A1.247,1.247,0,0,1,1.964,8.029Zm9.167,12.146a4.668,4.668,0,0,1-3.406-1.283,4.561,4.561,0,0,1-1.314-3.419v-.246a5.745,5.745,0,0,1,.554-2.562,4.064,4.064,0,0,1,1.569-1.74,4.4,4.4,0,0,1,2.316-.611,3.947,3.947,0,0,1,3.072,1.23,5,5,0,0,1,1.121,3.489v1.037H8.987a2.36,2.36,0,0,0,.743,1.494,2.245,2.245,0,0,0,1.569.563,2.742,2.742,0,0,0,2.294-1.063l1.248,1.4a3.813,3.813,0,0,1-1.547,1.261A5.075,5.075,0,0,1,11.131,20.176Zm-.29-7.8a1.591,1.591,0,0,0-1.226.51,2.634,2.634,0,0,0-.6,1.459h3.533v-.2a1.878,1.878,0,0,0-.457-1.305A1.642,1.642,0,0,0,10.841,12.371Zm7.98-1.881.079,1.1a3.32,3.32,0,0,1,2.733-1.274,2.759,2.759,0,0,1,2.25.888,4.142,4.142,0,0,1,.756,2.654V20H22.1V13.918a1.648,1.648,0,0,0-.352-1.173,1.574,1.574,0,0,0-1.169-.365,1.747,1.747,0,0,0-1.608.914V20h-2.54V10.49Zm11.7,7.638a1.666,1.666,0,0,0,1.143-.387,1.355,1.355,0,0,0,.457-1.028H34.5a3.258,3.258,0,0,1-.527,1.771,3.48,3.48,0,0,1-1.419,1.248,4.442,4.442,0,0,1-1.991.444,4.129,4.129,0,0,1-3.217-1.3A5.13,5.13,0,0,1,26.169,15.3v-.167a5.071,5.071,0,0,1,1.169-3.507,4.08,4.08,0,0,1,3.208-1.31,4,4,0,0,1,2.861,1.015,3.594,3.594,0,0,1,1.094,2.7H32.12a1.731,1.731,0,0,0-.457-1.2,1.7,1.7,0,0,0-2.5.185,3.739,3.739,0,0,0-.453,2.1v.264a3.786,3.786,0,0,0,.448,2.109A1.55,1.55,0,0,0,30.52,18.128Zm9.809,2.048a4.668,4.668,0,0,1-3.406-1.283,4.561,4.561,0,0,1-1.314-3.419v-.246a5.745,5.745,0,0,1,.554-2.562,4.064,4.064,0,0,1,1.569-1.74,4.4,4.4,0,0,1,2.316-.611,3.947,3.947,0,0,1,3.072,1.23,5,5,0,0,1,1.121,3.489v1.037H38.184a2.36,2.36,0,0,0,.743,1.494,2.245,2.245,0,0,0,1.569.563,2.742,2.742,0,0,0,2.294-1.063l1.248,1.4a3.813,3.813,0,0,1-1.547,1.261A5.075,5.075,0,0,1,40.329,20.176Zm-.29-7.8a1.591,1.591,0,0,0-1.226.51,2.634,2.634,0,0,0-.6,1.459h3.533v-.2a1.878,1.878,0,0,0-.457-1.305A1.642,1.642,0,0,0,40.039,12.371Z" transform="translate(39 91)" fill="#20a2bb"/>
        <path id="Path_217597" data-name="Path 217597" d="M-4.165,0V-34.3H-7.791c-1.078,2.6-4.557,4.018-8.722,4.312v3.626h7.154V0Zm12.3-34.79c-5,0-7.987,2.94-7.987,7.987v2.352l5,.245v-1.715c0-2.891.98-4.067,2.891-4.067s2.891,1.176,2.891,3.43v.686c0,2.793-.686,5.194-3.087,9.065L.147-4.41V0H16.121V-4.9H6.076l5.782-9.261c3.283-5.292,4.263-8.183,4.263-11.515V-26.95C16.121-31.9,13.132-34.79,8.134-34.79Z" transform="translate(39 65)" fill="#021134"/>
      </g>
      <line id="Line_46" data-name="Line 46" y2="18.246" transform="translate(356.801 100.813)" fill="none" stroke="#00529b" stroke-width="1" opacity="0.2"/>
    </g>
    <line id="Line_130" data-name="Line 130" y2="67.916" transform="translate(281.14 556.701)" fill="none" stroke="#707070" stroke-width="1" opacity="0.155"/>
    <line id="Line_131" data-name="Line 131" y2="67.916" transform="translate(428.14 556.701)" fill="none" stroke="#707070" stroke-width="1" opacity="0.155"/>
  </g>
</svg>
